{
    "asset" : {
        "generator" : "Khronos glTF Blender I/O v1.6.16",
        "version" : "2.0"
    },
    "scene" : 0,
    "scenes" : [
        {
            "name" : "Scene",
            "nodes" : [
                0,
                1,
                2,
                3,
                4,
                5
            ]
        }
    ],
    "nodes" : [
        {
            "name" : "Light",
            "rotation" : [
                0.16907575726509094,
                0.7558803558349609,
                -0.27217137813568115,
                0.570947527885437
            ],
            "translation" : [
                4.076245307922363,
                5.903861999511719,
                -1.0054539442062378
            ]
        },
        {
            "name" : "Camera",
            "rotation" : [
                0.483536034822464,
                0.33687159419059753,
                -0.20870360732078552,
                0.7804827094078064
            ],
            "translation" : [
                7.358891487121582,
                4.958309173583984,
                6.925790786743164
            ]
        },
        {
            "mesh" : 0,
            "name" : "\u5e73\u9762",
            "rotation" : [
                0.5,
                0.5,
                -0.5,
                0.4999999701976776
            ],
            "translation" : [
                -2,
                0,
                0
            ]
        },
        {
            "mesh" : 1,
            "name" : "\u5186",
            "scale" : [
                2.5,
                1,
                2.5
            ]
        },
        {
            "name" : "\u30d9\u30b8\u30a8\u5186",
            "scale" : [
                2.299999952316284,
                1,
                2.299999952316284
            ]
        },
        {
            "mesh" : 2,
            "name" : "\u30c6\u30ad\u30b9\u30c8.001",
            "translation" : [
                0,
                0.5,
                0
            ]
        }
    ],
    "animations" : [
        {
            "channels" : [
                {
                    "sampler" : 0,
                    "target" : {
                        "node" : 2,
                        "path" : "rotation"
                    }
                }
            ],
            "name" : "\u5e73\u9762Action.001",
            "samplers" : [
                {
                    "input" : 11,
                    "interpolation" : "LINEAR",
                    "output" : 12
                }
            ]
        },
        {
            "channels" : [
                {
                    "sampler" : 0,
                    "target" : {
                        "node" : 5,
                        "path" : "rotation"
                    }
                }
            ],
            "name" : "\u30c6\u30ad\u30b9\u30c8.001Action",
            "samplers" : [
                {
                    "input" : 13,
                    "interpolation" : "LINEAR",
                    "output" : 14
                }
            ]
        }
    ],
    "materials" : [
        {
            "doubleSided" : true,
            "name" : "\u30de\u30c6\u30ea\u30a2\u30eb",
            "pbrMetallicRoughness" : {
                "baseColorFactor" : [
                    0.12823939323425293,
                    0.12823939323425293,
                    0.12823939323425293,
                    1
                ],
                "metallicFactor" : 0.8161764740943909,
                "roughnessFactor" : 0.5
            }
        },
        {
            "doubleSided" : true,
            "name" : "\u30de\u30c6\u30ea\u30a2\u30eb.001",
            "pbrMetallicRoughness" : {
                "baseColorFactor" : [
                    0.044454578310251236,
                    0.044454578310251236,
                    0.044454578310251236,
                    1
                ],
                "metallicFactor" : 0.845588207244873,
                "roughnessFactor" : 0.5
            }
        },
        {
            "doubleSided" : true,
            "name" : "\u30de\u30c6\u30ea\u30a2\u30eb.002",
            "pbrMetallicRoughness" : {
                "baseColorFactor" : [
                    0.800000011920929,
                    0.800000011920929,
                    0.800000011920929,
                    1
                ],
                "metallicFactor" : 0,
                "roughnessFactor" : 0.5
            }
        }
    ],
    "meshes" : [
        {
            "name" : "\u5e73\u9762.004",
            "primitives" : [
                {
                    "attributes" : {
                        "POSITION" : 0,
                        "NORMAL" : 1,
                        "TEXCOORD_0" : 2
                    },
                    "indices" : 3,
                    "material" : 0
                }
            ]
        },
        {
            "name" : "\u5186.002",
            "primitives" : [
                {
                    "attributes" : {
                        "POSITION" : 4,
                        "NORMAL" : 5
                    },
                    "indices" : 6,
                    "material" : 1
                }
            ]
        },
        {
            "name" : "\u30c6\u30ad\u30b9\u30c8.002",
            "primitives" : [
                {
                    "attributes" : {
                        "POSITION" : 7,
                        "NORMAL" : 8,
                        "TEXCOORD_0" : 9
                    },
                    "indices" : 10,
                    "material" : 2
                }
            ]
        }
    ],
    "accessors" : [
        {
            "bufferView" : 0,
            "componentType" : 5126,
            "count" : 136,
            "max" : [
                0.22891199588775635,
                4,
                1
            ],
            "min" : [
                -0.22891199588775635,
                0,
                -1
            ],
            "type" : "VEC3"
        },
        {
            "bufferView" : 1,
            "componentType" : 5126,
            "count" : 136,
            "type" : "VEC3"
        },
        {
            "bufferView" : 2,
            "componentType" : 5126,
            "count" : 136,
            "type" : "VEC2"
        },
        {
            "bufferView" : 3,
            "componentType" : 5123,
            "count" : 384,
            "type" : "SCALAR"
        },
        {
            "bufferView" : 4,
            "componentType" : 5126,
            "count" : 484,
            "max" : [
                1.100000023841858,
                0.49999991059303284,
                1.100000023841858
            ],
            "min" : [
                -1.100000023841858,
                -0.49999991059303284,
                -1.100000023841858
            ],
            "type" : "VEC3"
        },
        {
            "bufferView" : 5,
            "componentType" : 5126,
            "count" : 484,
            "type" : "VEC3"
        },
        {
            "bufferView" : 6,
            "componentType" : 5123,
            "count" : 768,
            "type" : "SCALAR"
        },
        {
            "bufferView" : 7,
            "componentType" : 5126,
            "count" : 4926,
            "max" : [
                -0.009443184360861778,
                0.10000000149011612,
                2.6425445079803467
            ],
            "min" : [
                -2.3403401374816895,
                -0.10000000149011612,
                0.7945541143417358
            ],
            "type" : "VEC3"
        },
        {
            "bufferView" : 8,
            "componentType" : 5126,
            "count" : 4926,
            "type" : "VEC3"
        },
        {
            "bufferView" : 9,
            "componentType" : 5126,
            "count" : 4926,
            "type" : "VEC2"
        },
        {
            "bufferView" : 10,
            "componentType" : 5123,
            "count" : 8724,
            "type" : "SCALAR"
        },
        {
            "bufferView" : 11,
            "componentType" : 5126,
            "count" : 300,
            "max" : [
                12.5
            ],
            "min" : [
                0.041666666666666664
            ],
            "type" : "SCALAR"
        },
        {
            "bufferView" : 12,
            "componentType" : 5126,
            "count" : 300,
            "type" : "VEC4"
        },
        {
            "bufferView" : 13,
            "componentType" : 5126,
            "count" : 350,
            "max" : [
                14.583333333333334
            ],
            "min" : [
                0.041666666666666664
            ],
            "type" : "SCALAR"
        },
        {
            "bufferView" : 14,
            "componentType" : 5126,
            "count" : 350,
            "type" : "VEC4"
        }
    ],
    "bufferViews" : [
        {
            "buffer" : 0,
            "byteLength" : 1632,
            "byteOffset" : 0
        },
        {
            "buffer" : 0,
            "byteLength" : 1632,
            "byteOffset" : 1632
        },
        {
            "buffer" : 0,
            "byteLength" : 1088,
            "byteOffset" : 3264
        },
        {
            "buffer" : 0,
            "byteLength" : 768,
            "byteOffset" : 4352
        },
        {
            "buffer" : 0,
            "byteLength" : 5808,
            "byteOffset" : 5120
        },
        {
            "buffer" : 0,
            "byteLength" : 5808,
            "byteOffset" : 10928
        },
        {
            "buffer" : 0,
            "byteLength" : 1536,
            "byteOffset" : 16736
        },
        {
            "buffer" : 0,
            "byteLength" : 59112,
            "byteOffset" : 18272
        },
        {
            "buffer" : 0,
            "byteLength" : 59112,
            "byteOffset" : 77384
        },
        {
            "buffer" : 0,
            "byteLength" : 39408,
            "byteOffset" : 136496
        },
        {
            "buffer" : 0,
            "byteLength" : 17448,
            "byteOffset" : 175904
        },
        {
            "buffer" : 0,
            "byteLength" : 1200,
            "byteOffset" : 193352
        },
        {
            "buffer" : 0,
            "byteLength" : 4800,
            "byteOffset" : 194552
        },
        {
            "buffer" : 0,
            "byteLength" : 1400,
            "byteOffset" : 199352
        },
        {
            "buffer" : 0,
            "byteLength" : 5600,
            "byteOffset" : 200752
        }
    ],
    "buffers" : [
        {
            "byteLength" : 206352,
            "uri" : "data:application/octet-stream;base64,"
        }
    ]
}
